<svg width="393" height="210" viewBox="0 0 393 210" fill="none" xmlns="http://www.w3.org/2000/svg">
<path d="M40 137.119V137.555H70.3536L70.2346 137C60.1564 137 50.0782 137.079 40 137.119Z" fill="white"/>
<path d="M16.1001 137.957V216.397H94.1303V137.72L16.1001 137.957Z" fill="#F2F2F2"/>
<path d="M94.1302 216.397L97.0747 214.498V139.049L94.1302 137.72V216.397Z" fill="#505B75"/>
<path d="M92.6105 139.809C92.6105 140.378 92.1831 140.806 91.6132 140.806C91.0433 140.806 90.6158 140.331 90.6158 139.809C90.6158 139.239 91.0433 138.811 91.6132 138.811C92.1356 138.764 92.6105 139.239 92.6105 139.809Z" fill="#C6C6C6"/>
<path d="M19.0446 139.809C19.0446 140.379 18.6172 140.806 18.0473 140.806C17.4774 140.806 17.0499 140.331 17.0499 139.809C17.0499 139.239 17.4774 138.812 18.0473 138.812C18.5697 138.764 19.0446 139.239 19.0446 139.809Z" fill="#C6C6C6"/>
<path d="M36.0944 172.951L28.638 177.32C28.638 177.32 36.4743 193.748 38.0891 201.963C38.0891 201.963 45.5929 184.347 81.5922 149.78L80.1675 148.308C80.1675 148.308 51.3395 169.295 41.366 186.484L36.0944 172.951Z" fill="#26B545"/>
<path d="M66.2995 126.087C66.252 126.087 66.2045 126.087 66.157 126.087C63.8773 125.992 44.5954 126.039 43.5505 126.087C43.5505 126.087 41.5084 126.182 38.6113 126.609C40.8435 132.544 36.7591 134.301 34.8119 134.729V137.91H71.1437L70.3838 133.969C66.9644 132.734 66.2995 128.936 66.2995 126.087Z" fill="#006AB0"/>
<path d="M66.2995 126.893C66.2995 126.608 66.252 126.371 66.252 126.086C66.2046 126.086 66.1571 126.086 66.1096 126.086C63.8299 125.991 44.548 126.039 43.5031 126.086C43.5031 126.086 41.4609 126.181 38.5639 126.608C38.6114 126.656 38.6114 126.751 38.6114 126.798C47.8724 126.798 57.086 126.846 66.2995 126.893Z" fill="white"/>
<path d="M39.2288 129.695C39.2288 129.979 39.2288 130.217 39.1813 130.454C48.4424 130.502 57.7509 130.549 67.012 130.549C66.8695 130.217 66.7745 129.884 66.6795 129.552C57.5135 129.552 48.3474 129.647 39.2288 129.695Z" fill="white"/>
<path d="M69.2916 133.446C58.6533 133.446 48.015 133.446 37.4241 133.541C37.0442 133.826 36.6167 134.063 36.1893 134.253C47.5875 134.3 59.0332 134.3 70.4314 134.3L70.384 134.015C69.9565 133.826 69.5766 133.636 69.2916 133.446Z" fill="white"/>
<g style="mix-blend-mode:multiply">
<path d="M47.16 144.272C49.6296 143.702 51.3868 141.66 48.4898 141.803C45.5927 141.898 44.168 143.797 43.788 143.702C43.5506 143.655 38.3739 140.473 34.147 137.909C31.6299 137.909 29.1603 137.909 26.6432 137.957C31.8199 141.186 41.1759 146.693 41.1759 146.693C41.1759 146.693 40.701 147.833 41.5559 149.305C41.5559 149.305 41.3659 156.095 42.6007 155.81C43.8355 155.525 42.9807 149.115 43.5506 150.255C44.1205 151.394 46.5426 156.285 47.3025 155.05C48.0624 153.816 44.1205 147.88 45.9727 149.305C47.7774 150.729 50.6744 153.531 51.2444 152.201C51.8143 150.872 45.4978 147.406 48.1573 147.88C50.8644 148.355 54.8538 148.735 53.0491 146.931C51.2918 145.079 44.6429 144.889 47.16 144.272Z" fill="#C6C6C6"/>
</g>
<path d="M85.8665 87.6259C85.8665 87.6259 101.397 89.905 104.864 110.512L101.872 114.548L99.4019 108.993L101.112 115.973L96.8848 118.584L94.8901 112.174L95.8399 118.584L89.5234 119.914C89.5234 119.914 89.8084 106.476 86.2465 101.396L85.8665 87.6259Z" fill="#E08804"/>
<path opacity="0.3" d="M88.2888 106.524C90.5684 100.921 90.6634 94.5583 89.2386 88.623C87.2439 87.8158 85.9141 87.6259 85.9141 87.6259L86.2941 101.443C87.1489 102.725 87.8138 104.529 88.2888 106.524Z" fill="#E08804"/>
<path d="M48.9648 124.425C48.9648 124.425 47.2551 133.161 51.5769 133.731C55.8987 134.301 57.5135 126.656 57.3235 124.425H48.9648Z" fill="#EFCAA6"/>
<path d="M38.5642 126.609C35.3347 127.084 31.0128 127.986 27.2609 129.648C20.0895 132.829 20.9444 134.538 22.6067 135.868C24.2214 137.197 40.3214 146.694 40.3214 146.694C40.3214 146.694 39.8465 147.833 40.7013 149.305C40.7013 149.305 40.5113 156.095 41.7462 155.81C42.981 155.525 42.1261 149.115 42.696 150.255C43.2659 151.394 45.688 156.285 46.4479 155.051C47.2078 153.816 43.2659 147.881 45.1181 149.305C46.9228 150.73 49.8199 153.531 50.3898 152.202C50.9597 150.872 44.6432 147.406 47.3028 147.881C50.0099 148.356 53.9992 148.735 52.1945 146.931C50.3898 145.127 43.7408 144.937 46.2579 144.32C48.7276 143.75 50.4848 141.708 47.5877 141.851C44.6907 141.945 43.2659 143.845 42.886 143.75C42.506 143.655 27.8308 134.633 27.8308 134.633C27.8308 134.633 32.4376 132.544 34.7173 131.927V134.728C36.712 134.253 40.7963 132.544 38.5642 126.609Z" fill="#EFCAA6"/>
<path d="M38.1366 130.787C38.1366 130.787 37.9466 130.93 37.6616 131.072C37.3767 131.215 36.9493 131.405 36.5218 131.547C36.0944 131.689 35.667 131.784 35.3345 131.832C35.0021 131.879 34.7646 131.879 34.7646 131.879C34.7646 131.879 34.9546 131.737 35.2395 131.594C35.5245 131.452 35.9519 131.262 36.3793 131.12C36.8068 130.977 37.2342 130.882 37.5667 130.835C37.8991 130.787 38.1366 130.787 38.1366 130.787Z" fill="#C39368"/>
<path d="M110.23 95.4128C110.515 94.5581 114.267 89.6675 113.317 88.9078C112.367 88.148 109.755 93.7034 108.995 93.2286C108.235 92.7538 109.85 84.8718 107.95 85.9639C106.051 87.0085 107.096 93.466 106.146 92.8488C105.196 92.184 104.531 84.5394 103.059 85.8689C101.634 87.1984 105.148 94.0358 103.724 93.7509C102.299 93.466 100.304 92.5639 98.8319 93.466C97.3597 94.3207 102.679 94.7955 103.154 96.1725C103.629 97.502 103.534 98.0718 103.534 98.0718C103.534 98.0718 97.5971 109.183 88.4311 115.878C79.455 122.43 68.8641 126.086 66.2995 126.134C66.2995 129.03 67.0119 132.781 70.3839 134.063L69.624 130.075C69.624 130.075 91.2806 128.508 107.998 97.7394C107.998 97.7394 108.853 98.0243 109.613 97.1696C109.613 97.1696 115.359 96.5998 115.359 95.4603C115.312 94.2732 109.945 96.2675 110.23 95.4128Z" fill="#EFCAA6"/>
<path d="M68.8165 127.037C68.8165 127.037 68.959 127.274 69.1015 127.606C69.244 127.939 69.3865 128.414 69.5289 128.888C69.6239 129.363 69.7189 129.838 69.7664 130.218C69.8139 130.598 69.7664 130.835 69.7664 130.835C69.7664 130.835 69.6239 130.598 69.4814 130.265C69.339 129.933 69.1965 129.458 69.1015 128.983C69.0065 128.508 68.9115 128.034 68.864 127.654C68.8165 127.274 68.8165 127.037 68.8165 127.037Z" fill="#C39368"/>
<g style="mix-blend-mode:multiply">
<path d="M46.9701 133.114C50.4845 133.588 54.0939 133.541 57.6084 132.924C64.5898 131.642 71.1912 128.27 75.893 123C71.3812 124.994 67.6293 126.086 66.252 126.086C66.2045 126.086 66.1571 126.086 66.1096 126.086C65.1597 126.039 61.4078 126.039 57.2284 126.039C57.3234 125.421 57.3234 124.852 57.2759 124.472H48.9173C48.9173 124.472 48.7748 125.089 48.6798 126.039C45.8777 126.039 43.7881 126.086 43.4556 126.086C43.4556 126.086 41.4134 126.181 38.5164 126.608C37.3291 126.798 35.9518 127.036 34.527 127.321C37.519 130.929 42.5058 132.496 46.9701 133.114Z" fill="#D4D4D4"/>
</g>
<path d="M22.6065 88.8127C22.6065 88.8127 17.7147 86.7235 10.3059 92.7537C2.89704 98.7839 0 111.177 0 111.177L2.13717 112.411C2.13717 112.411 6.07904 104.197 9.68848 100.778C9.68848 100.778 4.60678 108.375 3.56194 113.931C3.56194 113.931 8.02624 115.64 9.83096 115.782C9.83096 115.782 11.6832 106.856 13.0605 105.052C13.0605 105.052 11.0658 112.601 11.2557 116.495C11.2557 116.495 15.1501 117.634 18.2371 117.207C18.2371 117.207 17.4298 106.144 22.179 99.2112L22.6065 88.8127Z" fill="#E08804"/>
<path opacity="0.3" d="M18.997 88.5754C18.3321 90.4747 17.9046 92.5639 17.7147 94.1308C17.2872 97.1222 17.1448 100.114 17.5722 103.105C17.8572 105.004 18.2371 106.856 18.807 108.66C19.3294 105.526 20.3268 102.013 22.274 99.2114L22.6539 88.7653C22.6064 88.8128 21.2766 88.243 18.997 88.5754Z" fill="#E08804"/>
<path d="M88.1935 93.941C85.9139 72.9064 63.0224 54.5309 37.7089 69.3928C37.7089 69.3928 22.3213 76.6575 19.7093 94.9856C17.0972 113.314 26.8806 120.341 31.7724 121.575C31.7724 121.575 23.7936 112.554 26.2157 97.1223C26.2157 97.1223 32.0573 97.6446 40.5585 97.9294C41.1284 94.6057 42.5532 88.7654 46.0676 85.1093C46.0676 85.1093 42.7431 90.8546 42.5532 97.9769C45.7352 98.0719 49.2496 98.0719 52.954 98.0244C53.049 95.1755 53.5239 90.3798 55.5661 86.2964C55.5661 86.2964 54.5213 92.0892 54.5213 97.9769C59.8879 97.882 65.5396 97.5496 71.0012 96.9323C71.0487 94.5582 71.0012 90.9496 70.2888 87.6259C70.2888 87.6259 71.9036 91.8518 72.8534 96.6949C75.6555 96.3625 78.3625 95.8877 80.9271 95.3654C80.9271 95.3654 82.2569 106.191 77.5552 117.634C77.6976 117.445 77.7451 117.302 77.7451 117.302C77.7451 117.302 90.2832 113.171 88.1935 93.941Z" fill="#F39F00"/>
<path d="M81.0223 95.4127C78.4102 95.935 75.7031 96.4098 72.9485 96.7422C71.9987 91.899 70.3839 87.6731 70.3839 87.6731C71.0963 90.9968 71.1438 94.653 71.0963 96.9796C65.6347 97.5968 59.9831 97.9292 54.6164 98.0242C54.6164 92.1364 55.6612 86.3436 55.6612 86.3436C53.5716 90.4271 53.1441 95.2227 53.0491 98.0717C49.3922 98.1191 45.8778 98.1191 42.6483 98.0242C42.8382 90.9019 46.1627 85.1566 46.1627 85.1566C42.6483 88.8127 41.176 94.6055 40.6536 97.9767C32.1999 97.7393 26.3108 97.1695 26.3108 97.1695C25.9309 99.4961 25.8359 101.68 25.8834 103.722C25.9784 107.236 26.5483 110.227 27.3557 112.791C29.1129 118.536 31.915 121.67 31.915 121.67C31.915 121.67 40.4161 131.974 56.6586 129.79C71.1913 127.843 76.7479 119.534 77.7453 117.777C78.5052 115.877 79.1226 114.026 79.5975 112.221C80.3099 109.467 80.7373 106.903 80.9748 104.624C81.4497 99.1163 81.0223 95.4127 81.0223 95.4127Z" fill="#F4D9BF"/>
<path d="M31.8198 79.3165C31.2974 79.8863 30.775 80.5035 30.3001 81.1208C29.8252 81.7381 29.3502 82.4028 28.8753 83.0201L28.2104 84.0172L27.593 85.0143C27.2131 85.6791 26.7856 86.3913 26.4532 87.1035C26.2632 87.4359 26.0733 87.8158 25.9308 88.1481L25.4558 89.2402L25.0284 90.3323C24.8859 90.7122 24.7435 91.092 24.6485 91.4719C24.506 91.8517 24.411 92.2316 24.2685 92.6114L23.9836 93.751C23.8886 94.1309 23.7936 94.5107 23.6986 94.8906L23.4612 96.0776L23.4137 95.9352C23.6036 96.0776 23.8411 96.2201 24.0786 96.3625C24.316 96.505 24.5535 96.5999 24.791 96.6949C25.0284 96.7899 25.2659 96.8848 25.5508 96.9323C25.7883 97.0273 26.0732 97.0273 26.3107 97.1222C26.0258 97.0748 25.7883 97.1222 25.5033 97.0273C25.2184 96.9798 24.9809 96.9323 24.7435 96.8373C24.506 96.7424 24.221 96.6474 23.9836 96.5524C23.7461 96.4575 23.5087 96.315 23.2712 96.1726L23.1762 96.1251V96.0301L23.3662 94.8431C23.4137 94.4632 23.4612 94.0359 23.5561 93.656L23.7936 92.469C23.8886 92.0891 24.0311 91.7093 24.1261 91.3294C24.221 90.9496 24.3635 90.5697 24.506 90.1899L24.9334 89.0503L25.4084 87.9582C25.5508 87.5784 25.7408 87.246 25.9308 86.8661C26.1207 86.5338 26.3107 86.1539 26.5007 85.8215C26.6907 85.4892 26.9281 85.1093 27.1181 84.7769L27.783 83.7798L28.4954 82.8302C28.9703 82.2129 29.4927 81.5482 30.0626 80.9784C30.6325 80.4086 31.2024 79.7913 31.8198 79.3165Z" fill="#CC6809"/>
<path d="M78.4103 79.3165C78.6477 79.5539 78.8852 79.8388 79.0752 80.0762C79.2651 80.3611 79.4551 80.646 79.6451 80.9309C80.025 81.5007 80.31 82.1179 80.6424 82.7352L81.0698 83.6374C81.2123 83.9697 81.3548 84.2546 81.4973 84.587C81.6398 84.9194 81.7347 85.2043 81.8772 85.5366C82.0197 85.869 82.1147 86.2014 82.2097 86.5338C82.3047 86.8661 82.4471 87.1985 82.4946 87.5309L82.7796 88.528L83.017 89.5251C83.112 89.8575 83.1595 90.1899 83.207 90.5222L83.3495 91.5194L83.4445 92.564C83.492 93.2287 83.492 93.9409 83.492 94.6057V94.7006L83.397 94.7481C82.6371 94.9381 81.8297 95.1755 81.0698 95.3654C81.8297 95.033 82.5421 94.7481 83.302 94.4632L83.207 94.6057C83.1595 93.9409 83.112 93.2762 83.017 92.6114L82.8746 91.6143L82.6846 90.6172C82.6371 90.2848 82.5421 89.9525 82.4946 89.6201L82.2572 88.623L81.9722 87.6258C81.8772 87.2935 81.7822 86.9611 81.6872 86.6762C81.5923 86.3438 81.4973 86.0115 81.3548 85.7266C81.2598 85.3942 81.1648 85.0618 81.0224 84.7769C80.7849 84.1597 80.5474 83.4949 80.2625 82.8776C79.9775 82.2604 79.6926 81.6431 79.4076 81.0258C79.2651 80.741 79.1227 80.4086 78.9327 80.1237C78.7427 79.8388 78.6477 79.5539 78.4103 79.3165Z" fill="#CC6809"/>
<path d="M59.983 102.345C59.983 102.345 61.2178 100.256 62.6425 100.636C64.0673 101.016 64.5897 102.345 64.7797 102.915C65.0172 103.485 63.07 100.826 59.983 102.345Z" fill="#CC6809"/>
<path d="M38.3738 103.057C38.3738 103.057 39.6086 100.968 41.0334 101.348C42.4582 101.728 42.9806 103.057 43.1705 103.627C43.408 104.197 41.4608 101.538 38.3738 103.057Z" fill="#CC6809"/>
<path d="M43.028 119.106C43.028 119.106 51.9091 125.089 62.8799 118.679C62.8799 118.679 60.8377 126.941 52.9064 127.131C44.9277 127.321 43.028 119.106 43.028 119.106Z" fill="white"/>
<path d="M51.8141 113.124C51.8141 113.124 51.7192 113.124 51.5767 113.124C51.4342 113.124 51.1967 113.124 50.9593 113.171C50.8643 113.219 50.7218 113.266 50.6268 113.314C50.5318 113.409 50.4843 113.503 50.3894 113.598C50.3894 113.646 50.3419 113.741 50.3419 113.788C50.3419 113.883 50.2944 113.978 50.3419 114.026C50.3419 114.121 50.3894 114.263 50.4843 114.406C50.5793 114.548 50.6743 114.643 50.7693 114.786C50.8643 114.88 51.0068 115.023 51.1492 115.118C51.2917 115.213 51.3867 115.308 51.5292 115.403C51.6717 115.498 51.7666 115.545 51.9091 115.64C52.1466 115.783 52.3366 115.878 52.479 115.925C52.6215 115.973 52.7165 115.973 52.7165 115.973C52.7165 115.973 52.6215 116.02 52.479 116.02C52.2891 116.02 52.0516 116.02 51.7666 115.925C51.4817 115.83 51.1492 115.735 50.8643 115.545C50.7218 115.45 50.5318 115.355 50.3894 115.213C50.2469 115.07 50.1044 114.928 50.0094 114.738C49.9144 114.548 49.8194 114.358 49.8194 114.073C49.8194 113.931 49.8669 113.883 49.8669 113.788C49.9144 113.646 49.9619 113.598 50.0094 113.456C50.1044 113.266 50.2944 113.124 50.4368 113.029C50.6268 112.934 50.7693 112.886 50.9593 112.886C51.2917 112.886 51.4817 112.981 51.6717 113.029C51.7666 113.076 51.8141 113.124 51.8141 113.124Z" fill="#C39368"/>
<path d="M22.9862 103.77C19.7092 105.052 21.039 112.506 27.2605 112.696C26.4532 110.18 25.8833 107.141 25.7883 103.627C25.1234 103.39 24.221 103.295 22.9862 103.77Z" fill="#EFCAA6"/>
<path d="M83.9665 103.769C82.6842 103.532 81.6394 103.912 80.8795 104.482C80.642 106.761 80.2146 109.372 79.5022 112.079C80.4046 112.079 81.4494 111.936 82.6367 111.556C86.5311 110.464 87.101 104.434 83.9665 103.769Z" fill="#EFCAA6"/>
<path d="M22.6062 107.188C22.6062 107.188 22.9387 107.093 23.4611 107.141C23.6986 107.141 24.031 107.188 24.316 107.283C24.6009 107.378 24.9334 107.521 25.2183 107.711C25.5033 107.901 25.7882 108.138 25.9782 108.375C26.0732 108.518 26.1682 108.613 26.2632 108.755C26.3582 108.898 26.4056 108.993 26.4531 109.135C26.5481 109.373 26.5956 109.61 26.5956 109.752C26.5956 109.895 26.5956 109.99 26.5956 109.99C26.5956 109.99 26.5481 109.942 26.4531 109.8C26.4056 109.752 26.3581 109.657 26.3107 109.562C26.2632 109.468 26.1682 109.42 26.1207 109.278C26.0732 109.183 25.9782 109.088 25.8832 108.993C25.7882 108.898 25.6933 108.803 25.5983 108.708C25.5033 108.613 25.3608 108.518 25.2658 108.423C25.1708 108.328 25.0284 108.233 24.8859 108.185C24.7434 108.091 24.6484 108.043 24.5059 107.948C24.3635 107.901 24.221 107.806 24.126 107.758C23.8411 107.616 23.6036 107.521 23.3661 107.426C22.8912 107.283 22.6062 107.188 22.6062 107.188Z" fill="#C39368"/>
<path d="M83.8717 107.9C83.8717 107.9 83.5867 107.805 83.1593 107.805C83.0643 107.805 82.9218 107.805 82.8268 107.853C82.7318 107.853 82.5894 107.9 82.4944 107.948C82.2569 108.043 82.0195 108.138 81.782 108.28C81.687 108.328 81.5445 108.423 81.4496 108.518C81.3546 108.613 81.2121 108.708 81.1646 108.803C81.0696 108.897 80.9746 108.992 80.8796 109.087C80.7847 109.182 80.6897 109.277 80.6422 109.325C80.4997 109.467 80.3572 109.61 80.2622 109.705C80.1673 109.8 80.1198 109.847 80.1198 109.847C80.1198 109.847 80.1198 109.752 80.1672 109.657C80.1672 109.61 80.2147 109.515 80.2622 109.42C80.3097 109.325 80.3097 109.23 80.4047 109.135C80.4997 108.945 80.6422 108.66 80.8322 108.47C80.9271 108.375 81.0221 108.233 81.1646 108.138C81.2596 108.043 81.4021 107.9 81.5445 107.853C81.687 107.758 81.8295 107.71 81.972 107.615C82.1145 107.568 82.3044 107.52 82.4469 107.473C82.5894 107.473 82.7793 107.426 82.9218 107.473C83.0643 107.473 83.2068 107.52 83.3018 107.568C83.6817 107.663 83.8717 107.9 83.8717 107.9Z" fill="#C39368"/>
<path d="M44.2154 110.417C44.3104 112.174 43.7405 113.598 42.9331 113.646C42.1732 113.693 41.4608 112.269 41.4134 110.512C41.3184 108.755 41.8883 107.331 42.6957 107.283C43.4555 107.283 44.1679 108.66 44.2154 110.417Z" fill="#673121"/>
<path d="M42.6007 109.182C42.6007 109.705 42.3632 110.132 42.1257 110.132C41.8883 110.132 41.6983 109.705 41.7458 109.135C41.7458 108.613 41.9833 108.185 42.2207 108.185C42.4582 108.185 42.6007 108.66 42.6007 109.182Z" fill="white"/>
<path d="M63.9247 109.087C64.0197 110.844 63.4498 112.269 62.6424 112.316C61.8825 112.364 61.1702 110.939 61.1227 109.182C61.0277 107.425 61.5976 106.001 62.4049 105.953C63.1648 105.953 63.8297 107.33 63.9247 109.087Z" fill="#673121"/>
<path d="M62.2625 107.853C62.2625 108.375 62.0251 108.802 61.7876 108.802C61.5502 108.802 61.4077 108.375 61.4077 107.805C61.4077 107.283 61.6451 106.856 61.8826 106.856C62.1201 106.856 62.2625 107.283 62.2625 107.853Z" fill="white"/>
<path d="M40.8433 115.973C40.8433 116.97 38.8487 117.777 36.4265 117.777C34.0044 117.777 32.0097 116.97 32.0097 115.925C32.0097 114.928 34.0044 114.121 36.4265 114.121C38.8961 114.121 40.8433 114.976 40.8433 115.973Z" fill="#F9CBC0"/>
<path d="M74.1356 114.168C74.1356 115.165 72.1409 115.973 69.7187 115.973C67.2966 115.973 65.3019 115.165 65.3019 114.121C65.3019 113.124 67.2966 112.269 69.7187 112.316C72.1409 112.316 74.1356 113.124 74.1356 114.168Z" fill="#F9CBC0"/>
<path d="M38.8013 97.8821C39.3712 97.8821 39.9411 97.9295 40.5585 97.9295C41.1284 94.6058 42.5532 88.7655 46.0677 85.1094C41.8883 87.5785 39.6562 94.5108 38.8013 97.8821Z" fill="#CC6809"/>
<path d="M52.9541 98.0246C53.049 95.1757 53.524 90.38 55.5661 86.2966C52.2892 89.6203 51.2918 95.4606 51.0069 98.0246C51.6717 98.0246 52.2892 98.0246 52.9541 98.0246Z" fill="#CC6809"/>
<path d="M67.0118 97.36C68.3416 97.265 69.7189 97.1226 71.0487 96.9801C71.0962 94.6535 71.0487 91.0923 70.3838 87.8161C68.959 83.97 67.2018 81.5959 67.2018 81.5959C69.0065 87.1513 67.7242 94.3686 67.0118 97.36Z" fill="#CC6809"/>
<path d="M34.7644 136.865V137.909H71.0962L70.8588 136.722C58.8432 136.675 46.78 136.722 34.7644 136.865Z" fill="#D4D4D4"/>
<path d="M141.552 17.2644C141.593 22.71 140.463 28.317 137.719 33.0768C136.711 34.892 135.541 37.393 133.644 38.4821C131.95 39.4502 130.013 39.4098 128.117 39.4502C121.984 39.5712 115.892 38.9661 109.759 38.5224C108.992 40.2973 107.782 41.8301 106.249 43.4839C103.344 46.5496 99.9548 48.9699 96.1622 50.9061C95.4763 51.2288 94.8307 51.5918 94.1448 51.9145C90.554 53.3667 86.9631 54.8592 83.2916 56.0693C80.9111 56.8357 78.571 57.3198 76.1099 57.6828C75.9082 57.7231 75.7468 57.7635 75.545 57.8038C75.7871 57.6828 76.0695 57.5618 76.3116 57.4004C77.6834 56.7954 79.1359 56.1096 80.3866 55.3029C82.2426 54.4155 84.0582 53.407 85.7931 52.2372C88.4963 50.3817 91.2399 48.1228 92.8134 45.1781C93.6607 43.605 94.4676 41.8301 94.508 39.9746C94.508 39.4905 94.4676 39.0468 94.3466 38.6031C88.577 41.3057 82.8074 43.8873 76.5537 45.4202C73.4874 46.1866 70.0579 45.9849 66.8302 45.1781C61.1413 43.7663 52.4264 23.8395 52.0633 20.5318C51.7405 17.4661 52.6281 14.7635 55.291 13.029C58.317 11.0524 61.7061 9.55995 65.0146 8.18847C76.594 3.38828 88.9805 1.16971 101.448 0.322618C112.987 -0.40346 125.494 -0.322785 136.025 5.1228C137.961 6.09091 140.18 7.2607 140.826 9.51961C141.552 11.9802 141.552 14.6828 141.552 17.2644ZM70.7438 41.9914C69.5737 41.6687 68.5247 41.4671 67.4757 40.7813C66.5881 40.1763 65.6601 38.6434 65.0952 37.756C63.6428 35.3357 62.2306 32.8751 60.8992 30.3339C59.7291 28.1556 58.7205 25.8967 57.6715 23.6781C56.0173 20.1688 54.8068 16.9417 57.5908 13.6341C57.6715 13.513 57.5504 13.3517 57.4294 13.4727C55.6138 15.1669 54.7262 16.7401 54.8875 19.241C55.1296 22.468 57.1873 25.8564 58.5187 28.68C60.1326 32.1087 61.9886 35.3761 64.0059 38.6031C65.6198 41.225 67.4757 42.3545 70.5017 42.5965C70.8245 42.6368 71.0666 42.1125 70.7438 41.9914ZM93.0958 35.5374C86.8421 37.7963 80.8708 40.3779 74.375 42.0318C75.6257 41.9511 76.8361 41.8704 78.0465 41.6687C83.3319 40.4183 88.3349 38.3207 93.0958 35.5374ZM95.678 35.7794C95.6377 35.6988 95.4763 35.7794 95.5166 35.9005C96.727 39.6115 95.2746 43.6453 93.5396 46.953C91.5627 50.6641 87.649 52.8019 84.0178 54.4961C83.8968 54.5768 83.9371 54.7785 84.0985 54.7382C91.1995 52.3179 99.8741 44.0083 95.678 35.7794Z" fill="#47AD5D"/>
<path d="M83.332 27.5106V21.8229L78.9746 13.6344H82.5654L83.9776 16.9824C84.4214 17.9909 84.7038 18.7169 85.0669 19.6447H85.1073C85.43 18.7976 85.7528 17.9909 86.1563 16.9824L87.5684 13.6344H91.0786L86.5194 21.7019V27.4702H83.332V27.5106Z" fill="white"/>
<path d="M100.439 21.6612H95.3553V24.9689H101.044V27.5505H92.1679V13.634H100.721V16.2156H95.315V19.0796H100.399V21.6612H100.439Z" fill="white"/>
<path d="M103.263 24.2831C104.11 24.7268 105.402 25.1302 106.733 25.1302C108.185 25.1302 108.952 24.5251 108.952 23.6377C108.952 22.7906 108.307 22.2662 106.612 21.7015C104.312 20.8947 102.819 19.6039 102.819 17.6274C102.819 15.2474 104.796 13.4323 108.064 13.4323C109.638 13.4323 110.768 13.755 111.615 14.118L110.929 16.6593C110.364 16.3769 109.396 16.0139 108.024 16.0139C106.652 16.0139 106.007 16.6189 106.007 17.345C106.007 18.2324 106.773 18.6358 108.589 19.2812C111.05 20.1686 112.18 21.4595 112.18 23.436C112.18 25.7756 110.405 27.7521 106.572 27.7521C104.998 27.7521 103.425 27.3488 102.658 26.905L103.263 24.2831Z" fill="white"/>
<path d="M113.834 25.8564C113.834 24.7672 114.601 24.0008 115.69 24.0008C116.779 24.0008 117.505 24.7672 117.505 25.8564C117.505 26.9455 116.779 27.7119 115.69 27.7119C114.56 27.7522 113.834 26.9455 113.834 25.8564ZM114.479 22.952L113.995 13.634H117.263L116.82 22.952H114.479Z" fill="white"/>
<path d="M388.391 225.159L391.763 222.983V136.576L388.391 135.053V225.159Z" fill="#505B75"/>
<path d="M299.027 135.326V225.16H388.391V135.054L299.027 135.326Z" fill="#F2F2F2"/>
<path d="M372.618 160.883L364.513 153.542L344.661 175.565L322.578 149.572L313.93 156.206L339.385 181.384L314.311 209.171L316.214 210.639L344.117 186.006L368.158 209.824L371.258 206.887L349.501 181.275L372.618 160.883Z" fill="#FF1B28"/>
<path d="M387.466 137.826C387.466 138.479 386.977 138.968 386.324 138.968C385.671 138.968 385.182 138.424 385.182 137.826C385.182 137.174 385.671 136.684 386.324 136.684C386.977 136.684 387.466 137.228 387.466 137.826Z" fill="#C6C6C6"/>
<path d="M303.215 137.826C303.215 138.479 302.725 138.968 302.073 138.968C301.42 138.968 300.93 138.425 300.93 137.826C300.93 137.174 301.474 136.684 302.073 136.684C302.671 136.684 303.215 137.228 303.215 137.826Z" fill="#C6C6C6"/>
<path d="M330.138 116.999C330.084 116.945 323.938 112.975 314.093 123.253L320.348 127.875C320.402 127.821 323.285 120.643 330.138 116.999Z" fill="#11B1C8"/>
<path d="M318.009 126.135L320.348 127.875C320.348 127.875 323.176 120.86 329.866 117.163C325.243 119.011 321.381 122.274 318.009 126.135Z" fill="#149DB1"/>
<path d="M359.618 121.132C349.61 118.902 330.138 116.945 330.138 116.945C323.285 120.588 320.402 127.821 320.402 127.821V135.27H362.555V130.376L362.882 130.92C361.304 128.419 359.618 121.132 359.618 121.132Z" fill="#F9CA29"/>
<path d="M320.402 134.238V135.271H362.555V134.129C348.468 134.129 334.435 134.183 320.402 134.238Z" fill="#F6B92B"/>
<path d="M373.216 129.724C373.216 129.724 370.931 124.776 363.317 122.166C362.338 121.839 361.087 121.513 359.618 121.187C359.618 121.187 361.304 128.473 362.882 130.975L364.948 134.292C364.948 134.238 370.442 132.878 373.216 129.724Z" fill="#11B1C8"/>
<path d="M360.053 122.818C360.652 125.102 361.794 129.18 362.882 130.92L364.948 134.237C364.948 134.237 365.873 134.02 367.124 133.531C365.003 129.778 363.099 125.809 360.053 122.818Z" fill="#149DB1"/>
<g style="mix-blend-mode:multiply">
<path d="M361.739 128.473C364.187 127.549 366.471 126.298 368.538 124.83C367.178 123.851 365.438 122.927 363.317 122.165C362.338 121.839 361.087 121.513 359.618 121.187C349.61 118.957 330.138 116.999 330.138 116.999C330.084 116.945 326.712 114.824 321.001 117.815C321.98 119.229 323.067 120.534 324.264 121.785C333.619 131.029 349.338 133.313 361.739 128.473Z" fill="#D4D4D4"/>
</g>
<g style="mix-blend-mode:multiply">
<path d="M343.355 143.482C341.615 143.21 338.351 142.884 338.351 142.884C338.351 142.884 343.246 141.307 343.681 140.436C344.117 139.512 343.083 139.621 341.56 140.11C340.092 140.6 337.427 141.361 337.427 141.361C337.427 141.361 338.895 139.73 338.732 138.588C338.569 137.446 335.088 141.035 334.87 141.198C334.598 141.361 333.238 140.708 332.259 140.872C332.259 140.872 321.599 137.554 317.248 135.271C314.474 135.271 311.101 135.325 308.327 135.379C310.993 138.805 331.824 144.243 331.824 144.243C331.824 144.243 332.314 146.201 334.707 146.853C334.707 146.853 336.611 148.593 337.155 149.844C337.753 151.095 339.439 150.986 339.113 149.844C338.786 148.702 337.318 146.962 337.318 146.962C337.318 146.962 339.874 147.886 341.343 148.92C342.811 150.007 343.953 149.518 343.246 147.832C342.485 146.201 338.242 145.113 338.242 145.113C338.242 145.113 342.376 145.222 343.573 145.276C344.932 145.385 345.096 143.754 343.355 143.482Z" fill="#C6C6C6"/>
</g>
<g style="mix-blend-mode:multiply">
<path d="M368.321 135.107L369.137 137.011L355.158 141.143L353.091 140.165C353.091 140.165 352.275 138.044 351.133 138.044C349.991 138.044 351.024 139.349 351.568 140.491C352.058 141.633 352.384 142.72 352.384 142.72C352.384 142.72 348.196 139.947 346.891 139.566C345.585 139.24 345.966 140.491 346.891 140.98C347.815 141.47 350.698 143.373 350.698 143.373C350.698 143.373 346.075 142.72 345.585 143.373C345.096 144.026 349.393 144.297 350.1 144.352C350.861 144.461 344.933 146.581 345.912 147.234C346.891 147.886 352.112 145.113 351.514 146.255C350.916 147.397 348.196 150.714 349.719 150.388C351.188 150.062 353.2 146.744 353.2 146.744C353.2 146.744 355.43 146.418 355.92 145.004C355.92 145.004 373.216 141.633 373.76 138.261C373.923 137.174 373.76 136.141 373.488 135.162C371.693 135.107 370.007 135.053 368.321 135.107Z" fill="#C6C6C6"/>
</g>
<path d="M338.297 123.253C338.297 123.253 336.23 130.485 342.376 130.377C348.522 130.268 348.686 124.232 348.686 124.232L338.297 123.253Z" fill="#EFCAA6"/>
<path d="M391.763 71.4847C394.374 70.0164 385.019 69.3639 385.019 69.3639C385.019 69.3639 385.834 66.9168 385.019 64.0892C384.203 61.3158 382.245 67.7325 382.245 67.7325C375.337 47.9931 341.234 45.4916 327.908 60.5002C314.583 75.5087 321.001 95.085 321.001 95.085C321.001 95.085 325.95 82.3604 336.828 73.551C336.828 73.551 332.423 79.5327 334.109 79.859C335.741 80.1309 340.037 77.847 358.585 74.7474C358.585 74.7474 354.832 79.3152 357.279 79.859C359.673 80.3484 368.919 77.5207 368.919 77.5207C368.919 77.5207 366.635 89.2665 370.442 87.4176C374.304 85.5687 375.5 82.6323 375.5 82.6323C375.5 82.6323 380.831 94.3237 377.676 109.06C403.675 85.3512 386.378 72.9529 386.378 72.9529C386.378 72.9529 389.098 72.9529 391.763 71.4847Z" fill="#EC7B23"/>
<path d="M375.391 82.5776C375.391 82.5776 374.14 85.4597 370.333 87.363C366.471 89.2118 368.81 77.466 368.81 77.466C368.81 77.466 359.564 80.2937 357.171 79.8043C354.777 79.3149 358.476 74.6927 358.476 74.6927C339.929 77.7923 335.632 80.0762 334 79.8043C332.368 79.5324 336.72 73.4964 336.72 73.4964C325.841 82.2514 320.892 95.0304 320.892 95.0304C320.892 95.0304 315.942 103.133 320.729 112.432C326.82 124.177 339.82 127.168 352.167 127.168C368.157 127.168 377.513 109.006 377.513 109.006C380.776 94.2691 375.391 82.5776 375.391 82.5776Z" fill="#F4D9BF"/>
<path d="M323.774 89.2662C323.774 89.2662 324.427 84.6441 320.239 85.1335C316.051 85.6229 315.67 94.6497 320.62 95.6285C320.62 95.6285 322.306 91.7133 323.774 89.2662Z" fill="#EFCAA6"/>
<path d="M377.676 108.625C377.676 108.625 379.634 103.948 383.768 105.689C387.901 107.429 384.203 114.009 379.416 115.15C374.63 116.292 374.793 113.465 374.793 113.465L377.676 108.625Z" fill="#EFCAA6"/>
<path d="M343.736 117.434C343.736 117.434 343.573 115.857 342.213 116.619C340.799 117.38 339.602 121.676 341.071 122.057C342.485 122.383 343.682 118.74 343.736 117.434Z" fill="white"/>
<path d="M337.263 85.2968C337.263 85.2968 337.481 84.9705 337.862 84.6442C338.297 84.3179 338.95 84.046 339.657 83.9917C339.983 83.9917 340.364 83.9917 340.69 84.1004C341.016 84.2092 341.288 84.3723 341.506 84.5355C341.615 84.6442 341.723 84.6986 341.778 84.8073C341.832 84.8617 341.887 84.9705 341.941 85.0792C341.995 85.2424 342.05 85.2968 342.05 85.2968C342.05 85.2968 341.941 85.2968 341.778 85.2968C341.615 85.2968 341.452 85.2968 341.234 85.2424C341.016 85.2424 340.744 85.2424 340.527 85.2424C340.255 85.2424 339.983 85.2968 339.711 85.2968C339.167 85.3511 338.569 85.3511 338.079 85.3511C337.644 85.3511 337.263 85.2968 337.263 85.2968Z" fill="#A95A16"/>
<path d="M360.162 89.5925C360.162 89.5925 360.597 89.2663 361.304 89.0487C362.011 88.7768 362.99 88.6681 364.024 88.7768C364.296 88.8312 364.513 88.8856 364.785 88.94C365.057 88.9944 365.275 89.1031 365.492 89.2119C365.71 89.3206 365.927 89.4838 366.091 89.5925C366.254 89.7557 366.417 89.9188 366.526 90.0819C366.634 90.2451 366.743 90.4082 366.798 90.5713C366.906 90.6801 366.906 90.8432 366.906 90.952C366.961 91.1695 366.961 91.2783 366.961 91.2783C366.961 91.2783 366.852 91.2239 366.689 91.0608C366.58 91.0064 366.526 90.8976 366.417 90.8432C366.308 90.7889 366.145 90.6801 366.036 90.6257C365.873 90.5713 365.71 90.517 365.547 90.4626C365.383 90.4082 365.22 90.3538 365.003 90.2995C364.785 90.2451 364.622 90.1907 364.404 90.1907C364.187 90.1363 363.969 90.0819 363.752 90.0819C363.317 90.0276 362.882 89.9732 362.446 89.9188C362.011 89.8644 361.631 89.81 361.25 89.7557C360.706 89.7013 360.162 89.5925 360.162 89.5925Z" fill="#A95A16"/>
<path d="M343.736 105.253C343.736 105.253 341.125 108.244 342.866 109.005C344.606 109.767 346.727 109.005 346.727 109.005C346.727 109.005 343.573 109.549 343.301 107.863C343.029 106.178 343.736 105.253 343.736 105.253Z" fill="#C39368"/>
<path d="M318.444 90.3536C318.444 90.3536 318.662 90.1905 319.097 90.0817C319.315 90.0273 319.586 89.973 319.858 90.0273C320.13 90.0273 320.457 90.1361 320.729 90.2449C320.892 90.2992 321.001 90.408 321.109 90.5168C321.218 90.6255 321.327 90.7343 321.436 90.843C321.545 90.9518 321.599 91.1149 321.653 91.2237C321.708 91.3324 321.708 91.4412 321.762 91.55C321.816 91.7675 321.816 91.9306 321.816 92.0937C321.816 92.2025 321.816 92.3113 321.816 92.3113C321.816 92.3113 321.762 92.2569 321.708 92.1481C321.653 92.0937 321.653 92.0394 321.599 91.985C321.545 91.9306 321.49 91.8218 321.436 91.7675C321.381 91.7131 321.327 91.6043 321.273 91.4956C321.218 91.4412 321.164 91.3324 321.055 91.2781C320.892 91.1149 320.729 91.0062 320.511 90.8974C320.402 90.843 320.294 90.7887 320.185 90.7343C320.076 90.7343 319.967 90.6255 319.858 90.6255C319.641 90.5711 319.423 90.5168 319.206 90.4624C318.716 90.408 318.444 90.3536 318.444 90.3536Z" fill="#C39368"/>
<path d="M381.755 110.746C381.755 110.746 381.701 110.691 381.538 110.637C381.429 110.583 381.211 110.528 381.048 110.42C380.939 110.42 380.831 110.365 380.722 110.365C380.613 110.311 380.45 110.311 380.341 110.311C380.232 110.311 380.069 110.256 379.906 110.256C379.743 110.256 379.634 110.256 379.471 110.311C379.308 110.311 379.199 110.311 379.036 110.365C378.872 110.42 378.764 110.42 378.601 110.42C378.492 110.474 378.329 110.42 378.22 110.474C378.111 110.528 378.002 110.528 377.839 110.583C377.404 110.691 377.023 110.746 377.023 110.746C377.023 110.746 377.241 110.528 377.676 110.256C377.785 110.202 377.893 110.093 378.002 110.039C378.111 109.984 378.274 109.93 378.437 109.876C378.601 109.821 378.764 109.767 378.872 109.713C379.036 109.658 379.199 109.658 379.362 109.658C379.525 109.658 379.688 109.658 379.852 109.658C380.015 109.658 380.178 109.713 380.341 109.767C380.504 109.821 380.667 109.821 380.776 109.93C380.885 109.984 381.048 110.093 381.157 110.148C381.374 110.311 381.483 110.474 381.592 110.583C381.755 110.637 381.755 110.746 381.755 110.746Z" fill="#C39368"/>
<path d="M360.869 100.142C360.216 101.828 359.128 102.97 358.421 102.698C357.714 102.426 357.606 100.849 358.258 99.1632C358.911 97.4774 359.999 96.3355 360.706 96.6073C361.413 96.8792 361.467 98.4562 360.869 100.142Z" fill="#3D1A0B"/>
<path d="M359.781 98.2929C359.564 98.7823 359.183 99.1086 358.965 98.9999C358.748 98.8911 358.748 98.4017 359.02 97.9123C359.237 97.4229 359.618 97.0966 359.836 97.2054C360.053 97.3141 360.053 97.8035 359.781 98.2929Z" fill="white"/>
<path d="M339.711 94.2689C339.059 95.9546 337.971 97.0966 337.264 96.8247C336.557 96.5528 336.448 94.9758 337.1 93.2901C337.753 91.6043 338.841 90.4624 339.548 90.7343C340.255 91.0062 340.364 92.5831 339.711 94.2689Z" fill="#3D1A0B"/>
<path d="M338.678 92.4203C338.46 92.9097 338.08 93.236 337.862 93.1272C337.644 93.0185 337.644 92.5291 337.916 92.0396C338.134 91.5502 338.515 91.224 338.732 91.3327C338.95 91.4415 338.95 91.9309 338.678 92.4203Z" fill="white"/>
<path d="M366.961 109.984C366.743 111.126 364.35 111.616 361.631 111.072C358.911 110.528 356.844 109.169 357.062 108.027C357.279 106.885 359.673 106.395 362.392 106.939C365.166 107.483 367.179 108.842 366.961 109.984Z" fill="#F9CBC0"/>
<path d="M335.904 100.577C335.686 101.719 333.293 102.208 330.573 101.665C327.854 101.121 325.787 99.7614 326.005 98.6194C326.222 97.4775 328.615 96.9881 331.335 97.5319C334.109 98.13 336.176 99.4895 335.904 100.577Z" fill="#F9CBC0"/>
<path d="M314.474 123.525C314.474 123.525 306.098 131.899 308.11 135.325C310.177 138.751 331.389 144.515 331.389 144.515C331.389 144.515 331.879 146.473 334.272 147.125C334.272 147.125 336.176 148.865 336.72 150.116C337.318 151.367 339.004 151.258 338.678 150.116C338.351 148.974 336.883 147.234 336.883 147.234C336.883 147.234 339.439 148.158 340.908 149.192C342.376 150.279 343.519 149.79 342.811 148.104C342.05 146.473 337.807 145.385 337.807 145.385C337.807 145.385 341.941 145.494 343.138 145.548C344.334 145.657 344.498 143.971 342.757 143.754C341.017 143.482 337.753 143.155 337.753 143.155C337.753 143.155 342.648 141.578 343.083 140.708C343.519 139.784 342.485 139.893 340.962 140.382C339.494 140.872 336.828 141.633 336.828 141.633C336.828 141.633 338.297 140.002 338.134 138.86C337.971 137.718 334.49 141.307 334.272 141.47C334 141.633 332.64 140.98 331.661 141.143C331.661 141.143 315.67 136.141 314.8 134.237C313.876 132.334 318.662 126.733 318.662 126.733L314.474 123.525Z" fill="#F4D9BF"/>
<path d="M367.07 133.53L368.647 137.228L354.669 141.361L352.602 140.382C352.602 140.382 351.786 138.261 350.644 138.261C349.501 138.261 350.535 139.566 351.079 140.708C351.568 141.85 351.895 142.938 351.895 142.938C351.895 142.938 347.707 140.165 346.401 139.784C345.096 139.458 345.476 140.708 346.401 141.198C347.326 141.687 350.208 143.59 350.208 143.59C350.208 143.59 345.585 142.938 345.096 143.59C344.606 144.243 348.903 144.515 349.61 144.569C350.372 144.678 344.443 146.799 345.422 147.451C346.401 148.104 351.623 145.331 351.024 146.472C350.426 147.614 347.707 150.932 349.229 150.605C350.698 150.279 352.71 146.962 352.71 146.962C352.71 146.962 354.94 146.636 355.43 145.222C355.43 145.222 372.726 141.85 373.27 138.479C373.814 135.107 371.203 131.464 371.203 131.464C371.203 131.464 368.701 132.987 367.07 133.53Z" fill="#F4D9BF"/>
<g opacity="0.4">
<path opacity="0.4" d="M323.774 89.2659C326.276 84.8069 330.573 78.4989 336.774 73.4961L340.309 70.3965C327.636 76.0519 323.774 89.2659 323.774 89.2659Z" fill="#D7711F"/>
<path opacity="0.4" d="M334 79.8043C335.632 80.0762 339.928 77.7923 358.476 74.6928C358.476 74.6928 358.421 74.7471 358.367 74.8559C360.815 72.7351 363.643 71.1581 363.643 71.1581C350.752 72.3001 334 79.8043 334 79.8043Z" fill="#D7711F"/>
<path opacity="0.4" d="M356.518 79.4237C356.626 79.6412 356.844 79.75 357.17 79.8044C359.564 80.2938 368.81 77.4661 368.81 77.4661C368.81 77.4661 368.81 77.5748 368.756 77.738C370.061 75.5084 371.638 73.0614 371.638 73.0614C363.48 78.8255 356.626 79.3693 356.518 79.4237Z" fill="#D7711F"/>
<path opacity="0.4" d="M374.303 77.3573C375.065 84.2634 369.517 87.5261 369.462 87.5261C369.734 87.5805 370.006 87.5261 370.333 87.363C374.194 85.5141 375.391 82.5777 375.391 82.5777C375.391 82.5777 380.667 94.0516 377.621 108.625C385.127 93.9972 374.303 77.3573 374.303 77.3573Z" fill="#D7711F"/>
</g>
<path d="M260.73 9.05721C261.345 6.9464 263.494 5.83343 265.298 4.87397C275.317 -0.307106 287.217 -0.383863 298.196 0.306948C310.058 1.07451 321.842 3.2237 332.821 7.79073C336.007 9.13397 339.193 10.554 342.072 12.3961C344.606 14.0464 345.45 16.6178 345.143 19.5345C344.798 22.6815 336.544 41.6404 331.094 42.9837C327.984 43.7512 324.76 43.9431 321.842 43.2139C315.892 41.7556 310.403 39.2994 304.914 36.728C304.798 37.1502 304.722 37.5723 304.76 38.0329C304.798 39.7599 305.566 41.4869 306.372 42.9837C307.869 45.7853 310.48 47.9345 313.052 49.6999C314.702 50.8129 316.43 51.7723 318.196 52.6166C319.424 53.3842 320.806 54.0366 322.073 54.6123C322.303 54.7275 322.572 54.8426 322.802 54.9961C322.61 54.9577 322.456 54.9193 322.265 54.881C319.923 54.5356 317.697 54.075 315.432 53.3458C311.938 52.1945 308.522 50.7745 305.106 49.3929C304.453 49.0858 303.8 48.7788 303.186 48.4334C299.578 46.5912 296.353 44.2885 293.59 41.3718C292.092 39.7983 290.979 38.3399 290.25 36.6512C284.415 37.0734 278.619 37.6491 272.784 37.534C270.98 37.4956 269.137 37.534 267.525 36.6129C265.721 35.615 264.607 33.1972 263.648 31.4702C261.037 26.9031 259.963 21.6069 260.001 16.3875C260.078 13.9696 260.039 11.3983 260.73 9.05721ZM327.639 40.5275C330.518 40.2972 332.284 39.2226 333.819 36.728C335.7 33.6577 337.466 30.5491 339.04 27.2869C340.345 24.5621 342.302 21.3383 342.494 18.3064C342.648 15.9269 341.803 14.3918 340.076 12.8183C339.961 12.7032 339.846 12.8567 339.923 12.9718C342.533 16.1188 341.381 19.1891 339.846 22.528C338.848 24.6388 337.888 26.788 336.775 28.8604C335.508 31.2399 334.164 33.581 332.783 35.9221C332.245 36.8048 331.362 38.2631 330.518 38.8004C329.558 39.4529 328.522 39.6448 327.408 39.9518C327.101 40.0669 327.37 40.5658 327.639 40.5275ZM320.46 39.6448C321.612 39.8367 322.764 39.9134 323.954 39.9902C317.812 38.4167 312.092 35.9221 306.142 33.8113C310.672 36.4594 315.432 38.455 320.46 39.6448ZM314.702 52.041C314.856 52.0793 314.894 51.8875 314.779 51.8107C311.324 50.1988 307.601 48.1648 305.72 44.6339C304.069 41.4869 302.687 37.6491 303.839 34.1183C303.877 34.0415 303.724 33.9264 303.685 34.0031C299.693 41.8707 307.946 49.7766 314.702 52.041Z" fill="#E66D74"/>
<path d="M284.108 26.5578V13.3557H287.601L290.326 18.1913C291.094 19.5729 291.9 21.2232 292.476 22.72H292.553C292.361 20.9929 292.284 19.1892 292.284 17.2319V13.394H295.01V26.5962H291.862L289.06 21.4919C288.292 20.0719 287.409 18.3832 286.756 16.8481L286.68 16.8865C286.756 18.6135 286.795 20.494 286.795 22.6432V26.6346H284.108V26.5578Z" fill="white"/>
<path d="M309.674 19.8415C309.674 24.1783 307.063 26.788 303.186 26.788C299.271 26.788 296.967 23.8329 296.967 20.0718C296.967 16.1188 299.501 13.1637 303.378 13.1637C307.485 13.1637 309.674 16.1956 309.674 19.8415ZM300.154 19.995C300.154 22.5664 301.382 24.4086 303.378 24.4086C305.413 24.4086 306.564 22.4896 306.564 19.9183C306.564 17.5388 305.413 15.5048 303.378 15.5048C301.344 15.5048 300.154 17.4237 300.154 19.995Z" fill="white"/>
<path d="M311.209 24.9843C311.209 23.9481 311.938 23.2189 312.975 23.2189C314.011 23.2189 314.702 23.9481 314.702 24.9843C314.702 26.0205 314.011 26.7497 312.975 26.7497C311.9 26.7881 311.209 26.0205 311.209 24.9843ZM311.862 22.2211L311.401 13.3557H314.51L314.088 22.2211H311.862Z" fill="white"/>
</svg>
